<?xml version="1.0" encoding="UTF-8"?>
<svg width="100px" height="100px" viewBox="0 0 100 100" version="1.1" xmlns="http://www.w3.org/2000/svg" xmlns:xlink="http://www.w3.org/1999/xlink">
    <!-- Generator: Sketch 42 (36781) - http://www.bohemiancoding.com/sketch -->
    <title>experience-manager</title>
    <desc>Created with Sketch.</desc>
    <defs>
        <radialGradient cx="39.8679727%" cy="33.3128516%" fx="39.8679727%" fy="33.3128516%" r="60.1304167%" id="radialGradient-1">
            <stop stop-color="#4B3D31" offset="0%"></stop>
            <stop stop-color="#241405" offset="76.69%"></stop>
        </radialGradient>
    </defs>
    <g id="Symbols" stroke="none" stroke-width="1" fill="none" fill-rule="evenodd">
        <g id="experience-manager">
            <g id="experience-manager-icon-hover">
                <g id="Brush">
                    <rect id="Rectangle-path" fill="url(#radialGradient-1)" x="0" y="0" width="100" height="100"></rect>
                    <g id="Group" transform="translate(6.250000, 6.250000)">
                        <path d="M0.729166667,43.3333333 C0.729166667,67.0833333 20,86.3541667 43.75,86.3541667 C67.5,86.3541667 86.7708333,67.0833333 86.7708333,43.3333333 C86.7708333,19.5833333 67.5,0.3125 43.75,0.3125 C20,0.3125 0.729166667,19.4791667 0.729166667,43.3333333 Z M5.20833333,43.3333333 C5.20833333,21.9791667 22.5,4.6875 43.75,4.6875 C65,4.6875 82.2916667,21.9791667 82.2916667,43.3333333 C82.2916667,64.6875 65.1041667,81.875 43.75,81.875 C22.3958333,81.875 5.20833333,64.5833333 5.20833333,43.3333333 Z" id="Shape" fill="#FF7618"></path>
                        <path d="M43.75,17.7083333 C46.875,17.7083333 49.6875,19.5833333 51.0416667,22.1875 C50.3125,22.6041667 49.6875,23.125 49.0625,23.75 C47.7083333,25.1041667 45.8333333,25.9375 43.8541667,25.9375 C41.875,25.9375 40,25.2083333 38.6458333,23.75 C38.0208333,23.125 37.3958333,22.6041667 36.6666667,22.1875 C37.8125,19.5833333 40.625,17.7083333 43.75,17.7083333 Z M51.7708333,24.8958333 L51.7708333,25.8333333 C51.7708333,31.0416667 56.0416667,35.2083333 61.1458333,35.2083333 L62.0833333,35.2083333 C61.875,35.5208333 61.5625,35.8333333 61.3541667,36.1458333 C59.4791667,38.0208333 58.4375,40.5208333 58.4375,43.2291667 C58.4375,45.9375 59.4791667,48.4375 61.3541667,50.3125 C61.6666667,50.625 61.875,50.9375 62.0833333,51.25 L61.1458333,51.25 C55.9375,51.25 51.7708333,55.4166667 51.7708333,60.625 L51.7708333,61.5625 C51.4583333,61.3541667 51.1458333,61.0416667 50.8333333,60.8333333 C48.9583333,58.9583333 46.4583333,57.9166667 43.75,57.9166667 C41.0416667,57.9166667 38.5416667,58.9583333 36.6666667,60.8333333 C36.3541667,61.1458333 36.0416667,61.3541667 35.7291667,61.5625 L35.7291667,60.625 C35.7291667,55.4166667 31.5625,51.25 26.3541667,51.25 L25.4166667,51.25 C25.625,50.9375 25.9375,50.625 26.1458333,50.3125 C28.0208333,48.4375 29.0625,45.9375 29.0625,43.2291667 C29.0625,40.5208333 28.0208333,38.0208333 26.1458333,36.1458333 C25.8333333,35.8333333 25.625,35.5208333 25.4166667,35.2083333 L26.3541667,35.2083333 C31.5625,35.2083333 35.7291667,31.0416667 35.7291667,25.8333333 L35.7291667,24.8958333 C36.0416667,25.1041667 36.3541667,25.4166667 36.6666667,25.625 C38.5416667,27.5 41.0416667,28.5416667 43.75,28.5416667 C46.4583333,28.5416667 48.9583333,27.5 50.8333333,25.625 C51.1458333,25.4166667 51.4583333,25.2083333 51.7708333,24.8958333 Z M64.7916667,36.0416667 C67.5,37.3958333 69.2708333,40.1041667 69.2708333,43.2291667 C69.2708333,46.3541667 67.3958333,49.1666667 64.7916667,50.4166667 C64.375,49.6875 63.8541667,49.0625 63.2291667,48.4375 C61.875,47.0833333 61.0416667,45.2083333 61.0416667,43.2291667 C61.0416667,41.25 61.7708333,39.375 63.2291667,38.0208333 C63.8541667,37.3958333 64.375,36.7708333 64.7916667,36.0416667 Z M51.0416667,64.2708333 C49.6875,66.9791667 46.9791667,68.75 43.75,68.75 C40.625,68.75 37.8125,66.875 36.4583333,64.2708333 C37.1875,63.8541667 37.8125,63.3333333 38.4375,62.7083333 C39.7916667,61.3541667 41.6666667,60.5208333 43.6458333,60.5208333 C45.625,60.5208333 47.5,61.25 48.8541667,62.7083333 C49.5833333,63.3333333 50.3125,63.8541667 51.0416667,64.2708333 Z M22.7083333,50.5208333 C20,49.1666667 18.2291667,46.4583333 18.2291667,43.3333333 C18.2291667,40.2083333 20.1041667,37.3958333 22.7083333,36.1458333 C23.125,36.875 23.6458333,37.5 24.2708333,38.125 C25.625,39.4791667 26.4583333,41.3541667 26.4583333,43.3333333 C26.4583333,45.3125 25.7291667,47.1875 24.2708333,48.5416667 C23.6458333,49.1666667 23.125,49.7916667 22.7083333,50.5208333 Z M43.75,70.1041667 C47.3958333,70.1041667 50.625,67.9166667 52.1875,64.8958333 C53.4375,65.4166667 54.6875,65.7291667 56.1458333,65.7291667 C58.8541667,65.7291667 61.3541667,64.6875 63.2291667,62.8125 C65.1041667,60.9375 66.1458333,58.4375 66.1458333,55.7291667 C66.1458333,54.375 65.8333333,53.0208333 65.3125,51.7708333 C68.4375,50.2083333 70.5208333,47.0833333 70.5208333,43.3333333 C70.5208333,39.5833333 68.3333333,36.4583333 65.3125,34.8958333 C65.8333333,33.6458333 66.1458333,32.2916667 66.1458333,30.9375 C66.1458333,28.2291667 65.1041667,25.7291667 63.2291667,23.8541667 C61.3541667,21.875 58.75,20.8333333 56.1458333,20.8333333 C54.7916667,20.8333333 53.4375,21.1458333 52.1875,21.6666667 C50.625,18.5416667 47.5,16.3541667 43.75,16.3541667 C40.1041667,16.3541667 36.875,18.5416667 35.3125,21.6666667 C34.0625,21.1458333 32.7083333,20.8333333 31.3541667,20.8333333 C28.6458333,20.8333333 26.1458333,21.875 24.2708333,23.75 C22.3958333,25.625 21.3541667,28.2291667 21.3541667,30.8333333 C21.3541667,32.1875 21.6666667,33.5416667 22.1875,34.7916667 C19.0625,36.3541667 16.9791667,39.4791667 16.9791667,43.2291667 C16.9791667,46.9791667 19.1666667,50.1041667 22.1875,51.6666667 C21.6666667,52.9166667 21.3541667,54.2708333 21.3541667,55.625 C21.3541667,58.3333333 22.3958333,60.8333333 24.2708333,62.7083333 C26.1458333,64.5833333 28.6458333,65.625 31.3541667,65.625 C32.7083333,65.625 34.0625,65.3125 35.3125,64.7916667 C36.875,68.0208333 40.1041667,70.1041667 43.75,70.1041667 Z M53.0208333,62.3958333 C53.125,61.875 53.125,61.3541667 53.125,60.7291667 C53.125,56.25 56.7708333,52.7083333 61.1458333,52.7083333 C61.6666667,52.7083333 62.1875,52.7083333 62.7083333,52.6041667 C63.125,53.5416667 63.3333333,54.5833333 63.3333333,55.7291667 C63.3333333,57.7083333 62.6041667,59.5833333 61.1458333,60.9375 C59.7916667,62.2916667 57.9166667,63.125 55.9375,63.125 C55,63.0208333 53.9583333,62.8125 53.0208333,62.3958333 Z M62.8125,34.0625 C62.2916667,33.9583333 61.7708333,33.9583333 61.25,33.9583333 C56.7708333,33.9583333 53.2291667,30.3125 53.2291667,25.9375 C53.2291667,25.4166667 53.2291667,24.8958333 53.125,24.2708333 C54.0625,23.8541667 55.1041667,23.6458333 56.25,23.6458333 C58.2291667,23.6458333 60.1041667,24.375 61.4583333,25.8333333 C62.8125,27.1875 63.6458333,29.0625 63.6458333,31.0416667 C63.5416667,31.9791667 63.2291667,33.0208333 62.8125,34.0625 Z M34.4791667,24.1666667 C34.375,24.6875 34.375,25.2083333 34.375,25.8333333 C34.375,30.3125 30.7291667,33.8541667 26.3541667,33.8541667 C25.8333333,33.8541667 25.3125,33.8541667 24.7916667,33.9583333 C24.375,33.0208333 24.1666667,31.9791667 24.1666667,30.8333333 C24.1666667,28.8541667 24.8958333,26.9791667 26.3541667,25.625 C27.7083333,24.2708333 29.5833333,23.4375 31.5625,23.4375 C32.5,23.5416667 33.5416667,23.75 34.4791667,24.1666667 Z M24.6875,52.5 C25.2083333,52.6041667 25.7291667,52.6041667 26.25,52.6041667 C30.7291667,52.6041667 34.2708333,56.25 34.2708333,60.625 C34.2708333,61.1458333 34.2708333,61.6666667 34.375,62.2916667 C33.4375,62.7083333 32.3958333,62.9166667 31.25,62.9166667 C29.2708333,62.9166667 27.3958333,62.1875 26.0416667,60.7291667 C24.6875,59.375 23.8541667,57.5 23.8541667,55.5208333 C23.9583333,54.5833333 24.2708333,53.5416667 24.6875,52.5 Z" id="Shape" fill="#FFE0CB"></path>
                    </g>
                </g>
            </g>
        </g>
    </g>
</svg>