<?xml version="1.0" encoding="utf-8"?>
<!-- Generator: Adobe Illustrator 21.0.2, SVG Export Plug-In . SVG Version: 6.00 Build 0)  -->
<svg version="1.1" id="mnemonic" xmlns="http://www.w3.org/2000/svg" xmlns:xlink="http://www.w3.org/1999/xlink" x="0px" y="0px"
	 viewBox="0 0 240 234" enable-background="new 0 0 240 234" xml:space="preserve">
<radialGradient id="tile_1_" cx="93.6602" cy="-17.9998" r="383.6399" gradientUnits="userSpaceOnUse">
	<stop  offset="0" style="stop-color:#EC202B"/>
	<stop  offset="0.1463" style="stop-color:#E2202A"/>
	<stop  offset="0.3994" style="stop-color:#C51E26"/>
	<stop  offset="0.7265" style="stop-color:#981C20"/>
	<stop  offset="1" style="stop-color:#6D1A1B"/>
</radialGradient>
<rect id="tile" x="0" y="0" fill-rule="evenodd" clip-rule="evenodd" fill="url(#tile_1_)" width="240" height="234"/>
<g>
	<g>
		<linearGradient id="SVGID_1_" gradientUnits="userSpaceOnUse" x1="119.6997" y1="41.1505" x2="119.6997" y2="190.8505">
			<stop  offset="0.14" style="stop-color:#FFFFFF"/>
			<stop  offset="1" style="stop-color:#EAECEA"/>
		</linearGradient>
		<path fill="url(#SVGID_1_)" d="M206,117.5c0-42-30.2-76.3-67.4-76.3c-36.3,0-66,32.6-67.4,73.3l-37.8,0c0,42,30.2,76.4,67.4,76.4
			c36.3,0,66-32.7,67.4-73.4L206,117.5z M124.1,117.5c-5.2,12.3-18.8,37.7-42.4,37.7c-20.8,0-34.9-15.1-35.7-37.7H124.1z
			 M100.8,187.9c-27,0-50.2-19-59.8-45.9c7.7,15,22.4,24.2,40.7,24.2c22.5,0,42.8-18.2,54.2-48.6c0,0,0-0.1,0-0.1h29.3
			C163.9,156.6,135.5,187.9,100.8,187.9z M137.1,114.5c7.7-19.3,16.1-26.9,29.4-26.9c14.3,0,25.6,11.7,26.3,26.9H137.1z M166.5,76.6
			c-23.8,0-34,18.8-40.9,37.2c-0.1,0.2-0.2,0.5-0.3,0.7H74.2c1.3-39,29.7-70.3,64.4-70.3c31,0,56.9,24.9,63,58
			C196.4,87.1,182.8,76.6,166.5,76.6z"/>
	</g>
</g>
</svg>
