<?xml version="1.0" encoding="utf-8"?>
<!-- Generator: Adobe Illustrator 23.0.4, SVG Export Plug-In . SVG Version: 6.00 Build 0)  -->
<svg version="1.1" baseProfile="tiny" id="pr_x5F_cc_x5F_app_x5F_RGB.svg"
	 xmlns="http://www.w3.org/2000/svg" xmlns:xlink="http://www.w3.org/1999/xlink" x="0px" y="0px" viewBox="0 0 240 234"
	 xml:space="preserve">
<path fill="#3DF2B5" d="M197.5,234h-155C19,234,0,214.9,0,191.5v-149C0,19,19,0,42.5,0h155C221,0,240,19,240,42.5v149
	C240,214.9,221,234,197.5,234z"/>
<path fill="#00261D" d="M193.6,224H46.4C26.3,224,10,207.7,10,187.6V46.3C10,26.3,26.3,10,46.4,10h147.3c20.1,0,36.3,16.3,36.3,36.3
	v141.3C230,207.7,213.7,224,193.6,224z"/>
<g>
	<path fill="#C9FFF3" d="M76.7,135.1L69,164.2c-0.2,0.8-0.5,1.1-1.4,1.1H53.2c-1,0-1.1-0.3-1-1.4L79.9,67c0.5-1.8,0.8-3.2,1-8
		c0-0.6,0.3-1,0.8-1h20.4c0.6,0,1,0.2,1.1,1l31.1,105.1c0.2,0.8,0,1.3-0.8,1.3h-16.1c-0.8,0-1.3-0.3-1.4-1l-8-29.3H76.7z
		 M103.9,119.2c-2.7-10.8-9.2-34.3-11.6-45.7h-0.2c-2.1,11.4-7.2,30.6-11.3,45.7H103.9z"/>
	<path fill="#C9FFF3" d="M147.4,102.3c0-1.1,0-4-0.5-9.5c0-0.8,0.2-1,0.8-1.3c6-2.4,20-6.8,35.7-6.8c0.8,0,1.1,0.2,1.1,1v14.2
		c0,0.8-0.3,1-1.1,1c-6.1-0.3-15.1,0.5-18.5,1.9v61.5c0,0.8-0.3,1.1-1.1,1.1h-15.3c-0.8,0-1.1-0.3-1.1-1.1V102.3z"/>
</g>
</svg>
