<?xml version="1.0" encoding="utf-8"?>
<svg version="1.1" id="mnemonic" xmlns="http://www.w3.org/2000/svg" xmlns:xlink="http://www.w3.org/1999/xlink" x="0px" y="0px"
	 viewBox="0 0 96 96" enable-background="new 0 0 96 96" xml:space="preserve">
<g>
	<radialGradient id="SVGID_1_" cx="3969.2114" cy="3952.7866" r="143.432" gradientUnits="userSpaceOnUse">
		<stop  offset="0" style="stop-color:#1D0F0B;stop-opacity:0.85"/>
		<stop  offset="0.7669" style="stop-color:#1D0F0B"/>
	</radialGradient>
	<rect x="3881.5" y="3881.5" fill-rule="evenodd" clip-rule="evenodd" fill="url(#SVGID_1_)" width="220" height="214"/>
</g>
<g>
	
		<radialGradient id="tile_1_" cx="37.4637" cy="-4.2745" r="153.456" gradientTransform="matrix(1 0 0 1.0256 0 -3)" gradientUnits="userSpaceOnUse">
		<stop  offset="0" style="stop-color:#EC202B"/>
		<stop  offset="0.1463" style="stop-color:#E2202A"/>
		<stop  offset="0.3994" style="stop-color:#C51E26"/>
		<stop  offset="0.7265" style="stop-color:#981C20"/>
		<stop  offset="1" style="stop-color:#6D1A1B"/>
	</radialGradient>
	<rect id="tile" x="0" y="0" fill-rule="evenodd" clip-rule="evenodd" fill="url(#tile_1_)" width="96" height="96"/>
	<g>
		<linearGradient id="SVGID_2_" gradientUnits="userSpaceOnUse" x1="16.1897" y1="48.0005" x2="79.8097" y2="48.0005">
			<stop  offset="0.14" style="stop-color:#FFFFFF"/>
			<stop  offset="1" style="stop-color:#EBEDEB"/>
		</linearGradient>
		<path fill-rule="evenodd" clip-rule="evenodd" fill="url(#SVGID_2_)" d="M48,36.1c6.2,0,11.2,4.9,11.2,11c0,6.1-5,11-11.2,11
			c-4.1,0-7.7-2.2-9.7-5.5l1.5-0.9c-0.8-1.4-1.3-3-1.3-4.7c0-5.1,4.2-9.3,9.5-9.3V36.1z M48,59.3c6.8,0,12.3-5.5,12.3-12.2
			C60.3,40.4,54.8,35,48,35v-1.7c-7.7,0-14,6.2-14,13.9c0,2.5,0.7,4.9,2,7l1.5-0.9C39.5,56.9,43.5,59.3,48,59.3z M66.3,57.7
			C62.6,63.8,55.8,68,48,68c-11.7,0-21.2-9.4-21.2-20.9S36.3,26.3,48,26.3V28c10.7,0,19.4,8.6,19.4,19.1c0,3.4-0.9,6.7-2.6,9.6
			L66.3,57.7z M48,69.1c8.2,0,15.4-4.4,19.2-10.9l1.5,0.9c2.2-3.6,3.3-7.8,3.3-12c0-13.1-10.8-23.7-24-23.7v1.7
			c-12.3,0-22.3,9.9-22.3,22C25.7,59.3,35.7,69.1,48,69.1z M48,16.9c16.9,0,30.7,13.6,30.7,30.3c0,5.6-1.5,10.8-4.2,15.3L73,61.5
			c-5.2,8.7-14.8,14.2-25,14.2s-19.8-5.4-25-14.2l-1.5,0.9c-2.7-4.5-4.2-9.7-4.2-15.3C17.3,30.5,31.1,16.9,48,16.9z M75.5,63
			c2.8-4.7,4.3-10.1,4.3-15.8c0-17.3-14.3-31.4-31.8-31.4c-17.5,0-31.8,14.1-31.8,31.4c0,5.8,1.6,11.2,4.3,15.8l-1.5,0.9
			C25.1,74,36.2,80.2,48,80.2S70.9,74,76.9,63.9L75.5,63z"/>
	</g>
</g>
</svg>
