<?xml version="1.0" encoding="UTF-8"?>
<svg width="100px" height="100px" viewBox="0 0 100 100" version="1.1" xmlns="http://www.w3.org/2000/svg" xmlns:xlink="http://www.w3.org/1999/xlink">
    <!-- Generator: Sketch 42 (36781) - http://www.bohemiancoding.com/sketch -->
    <title>audience-manager</title>
    <desc>Created with Sketch.</desc>
    <defs>
        <radialGradient cx="39.8680352%" cy="33.3105085%" fx="39.8680352%" fy="33.3105085%" r="59.9136667%" id="radialGradient-1">
            <stop stop-color="#2F364C" offset="0%"></stop>
            <stop stop-color="#060F29" offset="76.69%"></stop>
        </radialGradient>
    </defs>
    <g id="Symbols" stroke="none" stroke-width="1" fill="none" fill-rule="evenodd">
        <g id="audience-manager">
            <g id="audience-manager-icon-hover">
                <g id="Brush">
                    <rect id="Rectangle-path" fill="url(#radialGradient-1)" x="0" y="0" width="100" height="100"></rect>
                    <path d="M7,49.787234 C7,74.0425532 26.25,93.7021277 50,93.7021277 C73.75,93.7021277 93,74.0425532 93,49.787234 C93,25.5319149 73.75,5.87234043 50,5.87234043 C26.25,5.87234043 7,25.5319149 7,49.787234 Z M11.4166667,49.787234 C11.4166667,28 28.7083333,10.3404255 50,10.3404255 C71.2916667,10.3404255 88.5833333,28 88.5833333,49.787234 C88.5833333,71.5744681 71.2916667,89.2340426 50,89.2340426 C28.7083333,89.2340426 11.4166667,71.5744681 11.4166667,49.787234 Z" id="Shape" fill="#6390FF"></path>
                    <path d="M68.7083333,30.5957447 C63.1666667,24.9361702 56.6666667,23.6595745 56.375,23.6170213 L56.125,24.5106383 C48.125,22.6382979 39.4166667,24.8085106 33.125,31.0212766 L32.2083333,30.0851064 C21.875,40.6382979 21.7083333,57.787234 31.9583333,68.212766 C42.2083333,78.6382979 58.9166667,78.5106383 69.2916667,67.9148936 L68.4166667,67.0212766 C74.5833333,60.5531915 76.6666667,51.5744681 74.7916667,43.3617021 L75.6666667,43.106383 C75.5416667,42.8510638 74.1666667,36.1702128 68.7083333,30.5957447 Z M51.4583333,48.2978723 L56.875,27.0212766 C58.9583333,27.6595745 63.0416667,29.2765957 66.5,32.8085106 C69.9166667,36.2978723 71.5833333,40.5106383 72.2083333,42.5957447 L51.4583333,48.2978723 Z M55.75,25.8297872 L49.7916667,48.0425532 L34.0833333,32 C40,26.1276596 48.25,24.0851064 55.75,25.8297872 Z M65.5416667,66.0851064 C56.6666667,74.1702128 43.0833333,74 34.7083333,65.4042553 C26.3333333,56.8510638 26.1666667,42.9787234 34.0416667,33.9148936 L65.5416667,66.0851064 Z M67.4583333,66.0425532 L51.75,50 L73.5,43.7446809 C75.25,51.4893617 73.2083333,59.9574468 67.4583333,66.0425532 Z" id="Shape" fill="#CAE4FF"></path>
                </g>
            </g>
        </g>
    </g>
</svg>