<?xml version="1.0" encoding="utf-8"?>
<!DOCTYPE svg PUBLIC "-//W3C//DTD SVG 1.1//EN" "http://www.w3.org/Graphics/SVG/1.1/DTD/svg11.dtd">
<svg version="1.1" id="Brush" xmlns="http://www.w3.org/2000/svg" xmlns:xlink="http://www.w3.org/1999/xlink" x="0px" y="0px"
	 viewBox="0 0 240 235" enable-background="new 0 0 240 235" xml:space="preserve">
<radialGradient id="SVGID_1_" cx="97.7105" cy="81.6193" r="143.7928" gradientTransform="matrix(1.0909 0 0 1.093 -10.9091 -10.9302)" gradientUnits="userSpaceOnUse">
	<stop  offset="0" style="stop-color:#2F364C"/>
	<stop  offset="0.7669" style="stop-color:#060F29"/>
</radialGradient>
<rect fill-rule="evenodd" clip-rule="evenodd" fill="url(#SVGID_1_)" width="240" height="235"/>
<path fill-rule="evenodd" clip-rule="evenodd" fill="#6390FF" d="M16.8,117c0,57,46.2,103.2,103.2,103.2S223.2,174,223.2,117
	S177,13.8,120,13.8S16.8,60,16.8,117z M27.4,117c0-51.2,41.5-92.7,92.6-92.7s92.6,41.5,92.6,92.7s-41.5,92.7-92.6,92.7
	S27.4,168.2,27.4,117z"/>
<path fill="#CAE4FF" d="M164.9,71.9c-13.3-13.3-28.9-16.3-29.6-16.4l-0.6,2.1c-19.2-4.4-40.1,0.7-55.2,15.3l-2.2-2.2
	c-24.8,24.8-25.2,65.1-0.6,89.6s64.7,24.2,89.6-0.7l-2.1-2.1c14.8-15.2,19.8-36.3,15.3-55.6l2.1-0.6C181.3,100.7,178,85,164.9,71.9z
	 M123.5,113.5l13-50c5,1.5,14.8,5.3,23.1,13.6c8.2,8.2,12.2,18.1,13.7,23L123.5,113.5z M133.8,60.7l-14.3,52.2L81.8,75.2
	C96,61.4,115.8,56.6,133.8,60.7z M157.3,155.3c-21.3,19-53.9,18.6-74-1.6c-20.1-20.1-20.5-52.7-1.6-74L157.3,155.3z M161.9,155.2
	l-37.7-37.7l52.2-14.7C180.6,121,175.7,140.9,161.9,155.2z"/>
</svg>
