<?xml version="1.0" encoding="UTF-8"?>
<svg width="100px" height="100px" viewBox="0 0 100 100" version="1.1" xmlns="http://www.w3.org/2000/svg" xmlns:xlink="http://www.w3.org/1999/xlink">
    <!-- Generator: Sketch 42 (36781) - http://www.bohemiancoding.com/sketch -->
    <title>campaign</title>
    <desc>Created with Sketch.</desc>
    <defs>
        <radialGradient cx="39.8679727%" cy="33.3128516%" fx="39.8679727%" fy="33.3128516%" r="60.1304167%" id="radialGradient-1">
            <stop stop-color="#404330" offset="0%"></stop>
            <stop stop-color="#1A1D05" offset="76.69%"></stop>
        </radialGradient>
    </defs>
    <g id="Symbols" stroke="none" stroke-width="1" fill="none" fill-rule="evenodd">
        <g id="campaign">
            <g id="campaign-icon-hover">
                <g id="Brush">
                    <rect id="Rectangle-path" fill="url(#radialGradient-1)" x="0" y="0" width="100" height="100"></rect>
                    <g id="Group" transform="translate(6.250000, 6.250000)">
                        <path d="M0.729166667,43.3333333 C0.729166667,67.0833333 20,86.3541667 43.75,86.3541667 C67.5,86.3541667 86.7708333,67.0833333 86.7708333,43.3333333 C86.7708333,19.5833333 67.5,0.3125 43.75,0.3125 C20,0.3125 0.729166667,19.4791667 0.729166667,43.3333333 Z M5.20833333,43.3333333 C5.20833333,21.9791667 22.5,4.6875 43.75,4.6875 C65,4.6875 82.2916667,21.9791667 82.2916667,43.3333333 C82.2916667,64.6875 65.1041667,81.875 43.75,81.875 C22.3958333,81.875 5.20833333,64.5833333 5.20833333,43.3333333 Z" id="Shape" fill="#D4F10D"></path>
                        <path d="M43.75,50.3125 C42.5,50.3125 41.4583333,50 40.4166667,49.4791667 L40.4166667,53.3333333 C41.4583333,53.6458333 42.6041667,53.8541667 43.75,53.8541667 C49.4791667,53.8541667 54.375,49.6875 54.375,43.5416667 L54.375,15.7291667 C53.2291667,15.3125 52.0833333,14.7916667 50.8333333,14.4791667 L50.8333333,43.5416667 C50.8333333,47.7083333 47.5,50.3125 43.75,50.3125 Z M43.8541667,36.7708333 C45.1041667,36.7708333 45.9375,37.0833333 46.875,37.6041667 L46.875,33.75 C45.8333333,33.4375 44.6875,33.2291667 43.5416667,33.2291667 C37.8125,33.2291667 33.3333333,37.8125 33.3333333,43.5416667 L33.3333333,71.1458333 C34.4791667,71.5625 35.7291667,71.875 36.875,72.1875 L36.875,43.5416667 C36.875,39.7916667 40.1041667,36.7708333 43.8541667,36.7708333 Z M58.3333333,43.4375 C58.4375,52.7083333 51.5625,57.9166667 43.75,57.9166667 C42.6041667,57.9166667 41.4583333,57.7083333 40.4166667,57.3958333 L40.4166667,58.8541667 C41.4583333,59.0625 42.6041667,59.1666667 43.75,59.1666667 C52.3958333,59.1666667 59.6875,52.9166667 59.5833333,43.4375 L59.5833333,18.2291667 C59.0625,17.9166667 58.8541667,17.6041667 58.3333333,17.2916667 L58.3333333,43.4375 Z M43.75,29.0625 C44.8958333,29.0625 45.8333333,29.0625 46.875,29.375 L46.875,28.125 C45.8333333,27.9166667 44.6875,27.8125 43.5416667,27.8125 C34.8958333,27.8125 28.125,34.375 28.125,43.0208333 L28.125,68.5416667 C28.6458333,68.8541667 28.8541667,69.1666667 29.375,69.375 L29.375,43.5416667 C29.375,35.7291667 35.3125,29.1666667 43.75,29.0625 Z M63.5416667,43.5416667 C63.75,55.1041667 55.2083333,63.2291667 43.75,63.2291667 C42.6041667,63.2291667 41.5625,63.125 40.4166667,62.9166667 L40.4166667,64.375 C41.4583333,64.5833333 42.6041667,64.6875 43.75,64.6875 C55.3125,64.6875 64.8958333,56.6666667 64.7916667,43.75 L64.7916667,22.7083333 C64.2708333,22.1875 64.0625,21.7708333 63.5416667,21.3541667 L63.5416667,43.5416667 Z M22.9166667,64.375 C23.4375,64.8958333 23.6458333,65.3125 24.1666667,65.8333333 L24.1666667,43.3333333 C24.2708333,31.4583333 32.1875,23.9583333 42.9166667,23.9583333 C44.0625,23.9583333 45.4166667,24.0625 46.4583333,24.2708333 L46.4583333,22.8125 C45.4166667,22.6041667 44.2708333,22.5 43.125,22.5 C31.5625,22.5 22.9166667,30.7291667 22.9166667,43.3333333 L22.9166667,64.375 Z" id="Shape" fill="#F8FFCB"></path>
                    </g>
                </g>
            </g>
        </g>
    </g>
</svg>