<?xml version="1.0" encoding="utf-8"?>
<svg version="1.1" id="Brush" xmlns="http://www.w3.org/2000/svg" xmlns:xlink="http://www.w3.org/1999/xlink" x="0px" y="0px"
	 viewBox="0 0 96 96" enable-background="new 0 0 96 96" xml:space="preserve">
<radialGradient id="SVGID_1_" cx="45.0842" cy="40.375" r="57.7252" gradientTransform="matrix(1.0909 0 0 1.1089 -10.9091 -12.7915)" gradientUnits="userSpaceOnUse">
	<stop  offset="0" style="stop-color:#404330"/>
	<stop  offset="0.7669" style="stop-color:#1A1D05"/>
</radialGradient>
<rect fill-rule="evenodd" clip-rule="evenodd" fill="url(#SVGID_1_)" width="96" height="96"/>
<g>
	<path fill-rule="evenodd" clip-rule="evenodd" fill="#D4F10D" d="M6.7,47.6c0,22.8,18.5,41.3,41.3,41.3s41.3-18.5,41.3-41.3
		S70.8,6.3,48,6.3S6.7,24.7,6.7,47.6z M11,47.6c0-20.5,16.6-37.1,37-37.1s37,16.6,37,37.1S68.5,84.6,48,84.6S11,68,11,47.6z"/>
	<path fill="#F8FFCB" d="M48,54.3c-1.2,0-2.2-0.3-3.2-0.8v3.7c1,0.3,2.1,0.5,3.2,0.5c5.5,0,10.2-4,10.2-9.9V21.1
		c-1.1-0.4-2.2-0.9-3.4-1.2v27.9C54.8,51.8,51.6,54.3,48,54.3z M48.1,41.3c1.2,0,2,0.3,2.9,0.8v-3.7c-1-0.3-2.1-0.5-3.2-0.5
		c-5.5,0-9.8,4.4-9.8,9.9v26.5c1.1,0.4,2.3,0.7,3.4,1V47.8C41.4,44.2,44.5,41.3,48.1,41.3z M62,47.7c0.1,8.9-6.5,13.9-14,13.9
		c-1.1,0-2.2-0.2-3.2-0.5v1.4c1,0.2,2.1,0.3,3.2,0.3c8.3,0,15.3-6,15.2-15.1c0-0.2,0-24.2,0-24.2c-0.5-0.3-0.7-0.6-1.2-0.9L62,47.7z
		 M48,33.9c1.1,0,2,0,3,0.3V33c-1-0.2-2.1-0.3-3.2-0.3c-8.3,0-14.8,6.3-14.8,14.6l0,24.5c0.5,0.3,0.7,0.6,1.2,0.8V47.8
		C34.2,40.3,39.9,34,48,33.9z M67,47.8c0.2,11.1-8,18.9-19,18.9c-1.1,0-2.1-0.1-3.2-0.3v1.4c1,0.2,2.1,0.3,3.2,0.3
		c11.1,0,20.3-7.7,20.2-20.1c0-0.1,0-20.2,0-20.2c-0.5-0.5-0.7-0.9-1.2-1.3V47.8z M28,67.8c0.5,0.5,0.7,0.9,1.2,1.4V47.6
		c0.1-11.4,7.7-18.6,18-18.6c1.1,0,2.4,0.1,3.4,0.3v-1.4c-1-0.2-2.1-0.3-3.2-0.3c-11.1,0-19.4,7.9-19.4,20L28,67.8z"/>
</g>
</svg>
