<?xml version="1.0" encoding="iso-8859-1"?>
<!-- Generator: Adobe Illustrator 19.0.1, SVG Export Plug-In . SVG Version: 6.00 Build 0)  -->
<!DOCTYPE svg PUBLIC "-//W3C//DTD SVG 1.1//EN" "http://www.w3.org/Graphics/SVG/1.1/DTD/svg11.dtd">
<svg version="1.1" id="sy_x5F_cc_x5F_app_x5F_RGB.svg"
	 xmlns="http://www.w3.org/2000/svg" xmlns:xlink="http://www.w3.org/1999/xlink" x="0px" y="0px" viewBox="0 0 240 234"
	 style="enable-background:new 0 0 240 234;" xml:space="preserve">
<g>
	<rect x="10" y="10" style="fill-rule:evenodd;clip-rule:evenodd;fill:#262600;" width="220" height="213.999"/>
</g>
<g>
	<path style="fill-rule:evenodd;clip-rule:evenodd;fill:#FCF400;" d="M0,0v233.999h240.001V0H0z M10,10h220.001v213.999H10V10z"/>
</g>
<path style="fill-rule:evenodd;clip-rule:evenodd;fill:#FCF400;" d="M57.446,158.68c6.1,3.462,14.938,5.276,24.666,5.276
	c21.763,0,35.118-12.695,35.118-30.996c0-12.365-4.781-22.423-23.577-32.81l-5.276-2.803c-11.376-6.265-14.509-10.882-14.509-17.147
	c0-5.771,4.122-13.025,16.817-13.025c7.749,0,15.298,1.649,20.409,4.946c0.659,0.495,1.319,0,1.319-0.659V56.624
	c0-0.989-0.165-1.484-0.989-1.814c-4.122-2.308-11.341-3.792-21.069-3.792c-22.093,0-33.799,13.52-33.799,30.337
	c0,12.365,4.946,22.093,21.928,31.656l5.935,3.133c11.541,6.76,14.674,11.871,14.674,18.136c0,7.09-4.946,13.355-16.982,13.355
	c-8.244,0-16.917-2.308-24.336-7.419c-0.659-0.495-1.319,0-1.319,0.495v15.828C56.456,157.526,56.786,158.186,57.446,158.68z
	 M137.846,81.187h-17.312c-0.659,0-0.989,0.39-0.659,1.214c8.409,26.874,20.774,62.157,25.226,75.512
	c0.33,0.824,0.165,1.484,0,2.308c-4.452,11.706-6.925,18.796-10.717,27.369c-0.495,0.989-0.33,1.484,0.66,1.484l16.158-1.154
	c1.154-0.165,1.484-0.659,1.816-1.319c11.044-28.358,23.742-64.855,35.118-104.095c0.165-0.824,0-1.319-0.989-1.319h-15.168
	c-0.827,0-1.319,0.33-1.484,1.154c-6.597,23.082-12.038,41.773-15.995,56.611c-1.814-7.914-5.935-25.121-15.498-56.776
	C138.836,81.517,138.341,81.187,137.846,81.187z"/>
</svg>
