<?xml version="1.0" encoding="UTF-8"?>
<svg width="100px" height="74px" viewBox="0 0 100 74" version="1.1" xmlns="http://www.w3.org/2000/svg" xmlns:xlink="http://www.w3.org/1999/xlink">
    <!-- Generator: Sketch 46.2 (44496) - http://www.bohemiancoding.com/sketch -->
    <title>Shape</title>
    <desc>Created with Sketch.</desc>
    <defs></defs>
    <g id="Symbols" stroke="none" stroke-width="1" fill="none" fill-rule="evenodd">
        <g id="Creative-Cloud-Icon" fill="#DA1F26">
            <g id="creative-cloud-icon">
                <g id="Clipped">
                    <path d="M99.9967071,35.90615 L99.9967071,39.2315975 C99.9654324,39.412003 99.9259275,39.5890831 99.9053521,39.7686572 C99.7349873,41.2152269 99.6247029,42.6709415 99.3893197,44.1067035 C98.6206207,48.7731376 96.958947,53.1103525 94.4898925,57.1208422 C90.7402218,63.2097365 85.6712529,67.8528926 79.3010923,71.0237068 C75.6245078,72.8624711 71.6604294,74.0441178 67.5846057,74.516258 C66.6792857,74.6218409 65.7747887,74.7166162 64.8694688,74.817211 L29.7397614,74.817211 C29.5628125,74.7839565 29.3866866,74.7307494 29.2080917,74.7199416 C25.6658215,74.4946426 22.2577033,73.6790766 19.0092506,72.2433146 C11.9370555,69.117394 6.66397808,64.0510748 3.2122399,57.0776114 C1.68697592,54.0017034 0.699893392,50.6824782 0.294640503,47.2667099 C0.195055305,46.4361794 0.0979391617,45.6064803 0,44.7767811 L0,41.5502657 C0.0337437448,41.3715229 0.0855938892,41.1927801 0.0962931253,41.0132059 C0.279826176,37.9130575 0.909435073,34.9026962 2.01804054,32.0095569 C5.00148139,24.2246843 10.2021332,18.4508761 17.5928363,14.7139045 C21.4272779,12.7743373 25.5143861,11.7550876 29.7891425,11.5289572 C31.8820777,11.4192174 33.9733668,11.5372708 36.0539568,11.8191025 C36.2424279,11.8448747 36.5140239,11.7600758 36.6448838,11.6245638 C39.6365548,8.53771717 43.043027,6.03032976 46.8840528,4.12983653 C50.609856,2.28670726 54.5307146,1.09869114 58.6581507,0.623152154 C59.6293121,0.510918302 60.6029426,0.418637134 61.5757501,0.317210986 L64.5707132,0.317210986 C64.7665915,0.347971375 64.9632928,0.382888573 65.1591712,0.406166706 C66.6430729,0.580752699 68.1352048,0.690492466 69.6051153,0.939069665 C74.1909725,1.71639301 78.4599677,3.37911676 82.4104549,5.84909288 C88.4678686,9.63677756 93.0841775,14.7637862 96.2379831,21.2184798 C98.0619284,24.9340758 99.2329385,28.941527 99.6987745,33.062061 C99.8057669,34.0106449 99.8971219,34.9592288 99.9967071,35.90615 M44.084968,14.3880107 C44.1450483,14.4678214 44.1598627,14.5052327 44.1853762,14.5177031 C46.2420788,15.5417494 48.2078247,16.7424997 50.0609029,18.1066923 C50.1777715,18.1923226 50.4674739,18.156574 50.609033,18.0667869 C55.7018694,14.807017 61.2226753,13.6821844 67.1533442,14.7446649 C72.9646754,15.78553 77.6937378,18.7185746 81.3067876,23.4032988 C85.3980109,28.7048934 86.9576303,34.6998439 85.8284494,41.3698602 C85.0712726,45.840093 83.2984915,49.8505826 80.285422,53.210116 C74.7876607,59.3347589 67.9031137,61.8679185 59.7988538,60.7954617 C54.8097177,60.1353603 50.5028637,57.961349 46.938372,54.3224781 C42.363214,49.6543812 37.7584274,45.0170447 33.1701011,40.3614182 C32.5585986,39.7412223 31.8779626,39.2424052 30.9973332,39.1334968 C29.4591122,38.9431149 28.0632734,39.7187755 27.3990977,41.1146321 C26.8065247,42.3608435 26.8830653,43.7658451 28.1686197,45.0428169 C33.2836776,50.1149557 38.3534695,55.2336507 43.4627663,60.3107777 C44.3372371,61.1841491 45.2750691,61.9903188 46.2684352,62.7225585 C50.0008226,65.4602331 54.2089145,66.9741431 58.7659661,67.5835313 C62.342803,68.0607331 65.8916573,67.9584755 69.4133521,67.1587054 C76.1308263,65.6348191 81.6952521,62.1713656 86.0778239,56.8273715 C89.6966347,52.4111772 91.88504,47.3365443 92.6479779,41.6392214 C93.0900968,38.390352 92.9977728,35.0900162 92.3747358,31.8715508 C91.3583084,26.6090302 89.1542658,21.9001965 85.6226948,17.8922009 C78.8846451,10.2494913 70.407558,6.83758214 60.3198243,7.59910962 C56.4392937,7.89174899 52.7686327,9.04318519 49.3144254,10.8696872 C47.4504348,11.8479617 45.697022,13.0276392 44.084968,14.3880107 M41.6167365,67.7414901 C41.4779087,67.6115737 41.3396404,67.4810487 41.2019354,67.3499187 C39.1106462,65.3554815 37.0078348,63.3735148 34.9412362,61.3533055 C34.5412494,60.9625654 34.1733603,60.7721835 33.6071238,60.7854853 C31.5141886,60.8370298 29.4196073,60.8461747 27.3571238,60.3756239 C17.1023175,58.0328462 11.147781,46.7703869 14.9270805,36.8605534 C17.9080523,29.0465832 26.1604554,24.2878678 34.298459,25.7552215 C37.9460755,26.4128288 41.1476162,27.9724636 43.7755132,30.7101383 C46.9803459,34.052213 50.2806488,37.2986811 53.5200483,40.60667 C54.2574725,41.3598838 55.1043582,41.7032363 56.1257238,41.5560852 C57.4458449,41.3657034 58.4968391,40.7305429 58.9741896,39.4228107 C59.441664,38.1358625 59.215334,36.917086 58.2507567,35.9302595 C54.8508686,32.45101 51.5316364,28.8844676 47.9943043,25.5532006 C41.1336249,19.089362 33.0433563,17.1672534 24.0955028,19.9157357 C12.0605082,23.6094765 5.01711874,36.1630408 7.76682243,48.5503327 C10.2729127,59.8369014 20.0446074,67.7581173 31.4787988,67.7680937 C34.6712862,67.7714191 37.8645967,67.7697564 41.0570842,67.7680937 C41.2151037,67.7680937 41.3731232,67.7539605 41.6167365,67.7414901" id="Shape"></path>
                </g>
            </g>
        </g>
    </g>
</svg>