<?xml version="1.0" encoding="utf-8"?>
<!-- Generator: Adobe Illustrator 21.0.2, SVG Export Plug-In . SVG Version: 6.00 Build 0)  -->
<svg version="1.1" id="mnemonic" xmlns="http://www.w3.org/2000/svg" xmlns:xlink="http://www.w3.org/1999/xlink" x="0px" y="0px"
	 viewBox="0 0 240 234" enable-background="new 0 0 240 234" xml:space="preserve">
<radialGradient id="tile_1_" cx="93.6638" cy="-17.9998" r="383.6399" gradientUnits="userSpaceOnUse">
	<stop  offset="0" style="stop-color:#EC202B"/>
	<stop  offset="0.1463" style="stop-color:#E2202A"/>
	<stop  offset="0.3994" style="stop-color:#C51E26"/>
	<stop  offset="0.7265" style="stop-color:#981C20"/>
	<stop  offset="1" style="stop-color:#6D1A1B"/>
</radialGradient>
<rect id="tile_10_" x="0" y="0" fill-rule="evenodd" clip-rule="evenodd" fill="url(#tile_1_)" width="240" height="234"/>
<g>
	<linearGradient id="SVGID_1_" gradientUnits="userSpaceOnUse" x1="120.0002" y1="36.3925" x2="120.0002" y2="197.8273">
		<stop  offset="0.14" style="stop-color:#FFFFFF"/>
		<stop  offset="1" style="stop-color:#EAECEA"/>
	</linearGradient>
	<path fill="url(#SVGID_1_)" d="M198.2,144.8l-26.4-19.5L197,90l-2.4-1.7l0,0l-65-45.2l-9.6-6.7v0l0,0l0,0v0l-9.6,6.7l-65,45.2l0,0
		L43,90l25.2,35.3l-26.4,19.5l-2.6,1.9l10,6.3l68.7,43.4l2.1,1.3v0l0,0l0,0v0l2.1-1.3l68.7-43.4l10-6.3L198.2,144.8z M51.8,97.3
		L120,49.8l68.2,47.5l-18.8,26.3l-41.7-31.2l-7.7-5.8v0l0,0l0,0l0,0l0,0v0l-7.7,5.8l-41.7,31.2L51.8,97.3z M51.8,151.1l22.8-16.8
		l39.9,56.4L51.8,151.1z M120,193.5l-43-60.9l43-32.2l43,32.2L120,193.5z M125.6,190.7l39.9-56.4l22.8,16.8L125.6,190.7z"/>
</g>
</svg>
