<?xml version="1.0" encoding="UTF-8"?>
<svg width="100px" height="100px" viewBox="0 0 100 100" version="1.1" xmlns="http://www.w3.org/2000/svg" xmlns:xlink="http://www.w3.org/1999/xlink">
    <!-- Generator: Sketch 46.2 (44496) - http://www.bohemiancoding.com/sketch -->
    <title>Group</title>
    <desc>Created with Sketch.</desc>
    <defs>
        <radialGradient cx="39.0223598%" cy="-7.67869198%" fx="39.0223598%" fy="-7.67869198%" r="192.9896%" gradientTransform="translate(0.390224,-0.076787),scale(0.997959,1.000000),translate(-0.390224,0.076787)" id="radialGradient-1">
            <stop stop-color="#EC1C24" offset="0%"></stop>
            <stop stop-color="#E21C23" offset="14.72%"></stop>
            <stop stop-color="#C51B21" offset="40.18%"></stop>
            <stop stop-color="#981B1E" offset="73.1%"></stop>
            <stop stop-color="#6E1A1B" offset="100%"></stop>
        </radialGradient>
        <linearGradient x1="0.0802029373%" y1="50.000303%" x2="100.125969%" y2="50.000303%" id="linearGradient-2">
            <stop stop-color="#FFFFFF" offset="14%"></stop>
            <stop stop-color="#EAECEA" offset="100%"></stop>
        </linearGradient>
    </defs>
    <g id="Symbols" stroke="none" stroke-width="1" fill="none" fill-rule="evenodd">
        <g id="Document-Cloud-Icon">
            <g id="document-cloud-icon">
                <g id="Document_Cloud">
                    <g id="Group">
                        <rect id="tile_2_" fill="url(#radialGradient-1)" x="0" y="0.102040816" width="100" height="99.7959184"></rect>
                        <path d="M82.7,59.4897959 C80.7,57.3469388 76.6,56.122449 70.8,56.122449 C67.7,56.122449 64.1,56.4285714 60.2,57.1428571 C58,55 55.8,52.4489796 53.7,49.4897959 C52.2,47.4489796 50.9,45.2040816 49.7,43.0612245 C52,35.9183673 53.1,30.1020408 53.1,25.9183673 C53.1,21.2244898 51.4,16.3265306 46.5,16.3265306 C45,16.3265306 43.5,17.244898 42.7,18.5714286 C40.5,22.5510204 41.5,31.2244898 45.3,39.7959184 C43.9,44.0816327 42.4,48.1632653 40.5,52.755102 C38.9,56.6326531 37.1,60.6122449 35.1,64.2857143 C24.1,68.7755102 17,73.9795918 16.2,78.0612245 C15.9,79.5918367 16.4,81.0204082 17.5,82.1428571 C17.9,82.4489796 19.3,83.6734694 21.7,83.6734694 C29,83.6734694 36.7,71.6326531 40.6,64.3877551 C43.6,63.3673469 46.6,62.3469388 49.6,61.5306122 C52.9,60.6122449 56.2,59.8979592 59.2,59.3877551 C66.9,66.4285714 73.7,67.5510204 77.1,67.5510204 C81.3,67.5510204 82.8,65.8163265 83.3,64.3877551 C84.2,62.5510204 83.6,60.5102041 82.7,59.4897959 Z M78.7,62.4489796 C78.4,63.9795918 76.9,65 74.8,65 C74.2,65 73.7,64.8979592 73.1,64.7959184 C69.3,63.877551 65.7,61.9387755 62.1,58.877551 C65.6,58.2653061 68.6,58.1632653 70.5,58.1632653 C72.6,58.1632653 74.4,58.2653061 75.6,58.5714286 C77,58.877551 79.2,59.7959184 78.7,62.4489796 Z M57.5,57.6530612 C54.9,58.1632653 52.1,58.7755102 49.2,59.5918367 C46.9,60.2040816 44.5,60.9183673 42.1,61.7346939 C43.4,59.1836735 44.5,56.7346939 45.5,54.3877551 C46.7,51.5306122 47.7,48.5714286 48.7,45.8163265 C49.7,47.5510204 50.8,49.2857143 51.9,50.8163265 C53.8,53.2653061 55.7,55.6122449 57.5,57.6530612 L57.5,57.6530612 L57.5,57.6530612 Z M44.4,19.6938776 C44.8,18.877551 45.6,18.4693878 46.3,18.4693878 C48.4,18.4693878 48.8,20.9183673 48.8,22.8571429 C48.8,26.122449 47.8,31.122449 46.1,36.8367347 C43.2,28.877551 43,22.244898 44.4,19.6938776 Z M33.4,67.244898 C28.3,75.8163265 23.4,81.122449 20.4,81.122449 C19.8,81.122449 19.3,80.9183673 18.9,80.6122449 C18.3,80 18,79.2857143 18.2,78.4693878 C18.8,75.4081633 24.6,71.122449 33.4,67.244898 Z" id="Shape" fill="url(#linearGradient-2)"></path>
                    </g>
                </g>
            </g>
        </g>
    </g>
</svg>