<?xml version="1.0" encoding="utf-8"?>
<!-- Generator: Adobe Illustrator 21.0.2, SVG Export Plug-In . SVG Version: 6.00 Build 0)  -->
<svg version="1.1" id="mnemonic" xmlns="http://www.w3.org/2000/svg" xmlns:xlink="http://www.w3.org/1999/xlink" x="0px" y="0px"
	 viewBox="0 0 240 234" enable-background="new 0 0 240 234" xml:space="preserve">
<radialGradient id="tile_1_" cx="93.6638" cy="-17.9998" r="383.6399" gradientUnits="userSpaceOnUse">
	<stop  offset="0" style="stop-color:#EC202B"/>
	<stop  offset="0.1463" style="stop-color:#E2202A"/>
	<stop  offset="0.3994" style="stop-color:#C51E26"/>
	<stop  offset="0.7265" style="stop-color:#981C20"/>
	<stop  offset="1" style="stop-color:#6D1A1B"/>
</radialGradient>
<rect id="tile_10_" x="0" y="0" fill-rule="evenodd" clip-rule="evenodd" fill="url(#tile_1_)" width="240" height="234"/>
<linearGradient id="SVGID_1_" gradientUnits="userSpaceOnUse" x1="120.056" y1="42.2961" x2="120.056" y2="193.6454">
	<stop  offset="0.14" style="stop-color:#FFFFFF"/>
	<stop  offset="1" style="stop-color:#EBEDEB"/>
</linearGradient>
<path fill="url(#SVGID_1_)" d="M172.2,87.9c1.3-8.2,3.3-16.3,5.8-24.3c-2.7-3-5.7-5.7-8.9-8.2c-3.9,11.4-6.8,23.3-8.4,35.2l-0.1,0.7
	c-13.2-5.9-25.7-13.3-37.2-22.1c9.6-7.5,18.5-15.9,26.5-25.1c-1-0.4-2-0.8-3-1.2c-7.8,9-16.5,17.1-25.9,24.4
	c-9.4-7.5-18.1-15.8-25.8-25c-1,0.3-2,0.7-3,1.1c7.9,9.5,16.8,18.1,26.4,25.8c-11.6,8.6-24.2,15.9-37.6,21.6l-0.1-0.7
	c-1.5-12.2-4.3-24.3-8.1-36c-3.2,2.4-6.2,5.1-9,8c2.5,8.3,4.4,16.7,5.7,25.2c-8.1,3-16.4,5.5-24.8,7.3c-1.1,3.8-2,7.7-2.5,11.7
	c12.1-2.3,24-5.8,35.4-10.5l0.7-0.3c1.6,14.3,1.5,28.8-0.3,43.2c-11.5-4.7-23.5-8.3-35.7-10.6c0.2,1.1,0.3,2.1,0.5,3.2
	c11.9,2.4,23.6,5.9,34.8,10.5c-1.7,11.9-4.6,23.6-8.6,35c0.8,0.7,1.6,1.4,2.5,2c4.2-11.6,7.2-23.6,8.9-35.8
	c13.2,5.8,25.7,13.1,37.3,21.8l-0.7,0.5c-9.6,7.3-18.6,15.5-26.7,24.5c3.7,1.5,7.6,2.8,11.5,3.7c5.7-6,11.9-11.7,18.4-16.9
	c6.4,5.2,12.4,10.9,18,16.9c4-0.9,7.8-2.2,11.5-3.7c-7.9-9-16.6-17.2-26-24.6l-0.7-0.5c11.7-8.5,24.3-15.7,37.7-21.3
	c1.6,11.9,4.4,23.7,8.3,35.1c0.8-0.7,1.7-1.3,2.5-2c-3.7-11.2-6.4-22.7-7.9-34.3c10.9-4.3,22.2-7.6,33.8-9.8c0.2-1,0.4-2.1,0.6-3.2
	c-11.9,2.2-23.5,5.5-34.7,9.9c-1.6-14.3-1.5-28.8,0.2-43.2l0.7,0.3c11,4.6,22.5,8.2,34.2,10.7c-0.5-4-1.3-8-2.4-11.8
	C187.7,93.4,179.8,91,172.2,87.9z M160.1,140.5c-14.1,5.8-27.5,13.4-39.7,22.4l-0.2-0.2L120,163c-12.1-9.3-25.4-17-39.4-23
	c2-15.1,2.1-30.4,0.3-45.5l0.4-0.1l-0.1-0.4c14.1-5.9,27.4-13.6,39.6-22.7c12.1,9.4,25.3,17.2,39.2,23.3l-0.1,0.4l0.3,0.1
	C158.4,110.1,158.3,125.4,160.1,140.5z"/>
</svg>
