<svg version="1.1" xmlns="http://www.w3.org/2000/svg" x="0" y="0" viewBox="0 0 240 240" enable-background="new 0 0 240 240" xml:space="preserve"><radialGradient id="a" cx="97.71" cy="81.287" r="143.432" gradientUnits="userSpaceOnUse"><stop data-use-luminance-on-grayscale="true" offset="0" stop-color="#17232B" stop-opacity=".85"/><stop data-use-luminance-on-grayscale="true" offset=".767" stop-color="#17232B"/></radialGradient><path fill-rule="evenodd" clip-rule="evenodd" fill="url(#a)" d="M10 10h220v214H10z"/><path fill-rule="evenodd" clip-rule="evenodd" fill="#AED3E9" d="M0 0v234h240V0H0zm10 10h220v214H10V10zM66.485 163.25c-1.155 0-1.485-.496-1.485-1.485V54.32c0-.825.33-1.32 1.155-1.32H82.01c.825 0 .99.33.99 1.155v92.595h41.25c.825 0 1.063.33.895 1.155l-2.475 14.19c-.163.825-.66 1.155-1.482 1.155H66.484zM140.5 98.488c0-1.155 0-4.125-.495-9.736 0-.825.18-.99.84-1.32 6.105-2.474 20.58-6.93 36.75-6.93.825 0 1.155.165 1.155.99v14.52c0 .825-.33.99-1.155.99-6.27-.33-15.63.496-19.095 1.98v63.112c0 .826-.33 1.156-1.155 1.156h-15.69c-.825 0-1.155-.33-1.155-1.156V98.488z"/></svg>1.2,1c-6.3-0.3-15.6,0.5-19.1,2v63.1c0,0.8-0.3,1.2-1.2,1.2h-15.7
	c-0.8,0-1.2-0.3-1.2-1.2V98.5z"/>
</svg>
