<svg id="Brush" xmlns="http://www.w3.org/2000/svg" viewBox="0 0 240 235"><title>adobe_fonts_brand_illustrationArtboard 1 copy 3</title><rect width="240" height="235" fill="#140f4d"/><path d="M16.75,117A103.25,103.25,0,1,0,120,13.75,103.248,103.248,0,0,0,16.75,117Zm10.645,0A92.60507,92.60507,0,1,1,120,209.715,92.65967,92.65967,0,0,1,27.395,117Z" fill="#968cff" fill-rule="evenodd"/><polygon points="138.887 59 138.887 180 169.814 155.318 169.814 75.793 138.887 59" fill="#dcd9ff"/><polygon points="124.536 153.578 99.56 164.466 99.56 69.475 124.536 76.905 124.536 153.578" fill="#dcd9ff"/><polygon points="66.186 150.764 85.21 145.78 85.224 85.1 66.2 82.084 66.186 150.764" fill="#dcd9ff"/></svg>