<svg version="1.1" xmlns="http://www.w3.org/2000/svg" x="0" y="0" viewBox="0 0 240 240" enable-background="new 0 0 240 240" xml:space="preserve"><radialGradient id="a" cx="97.71" cy="81.286" r="143.432" gradientUnits="userSpaceOnUse"><stop data-use-luminance-on-grayscale="true" offset="0" stop-color="#180024" stop-opacity=".85"/><stop data-use-luminance-on-grayscale="true" offset=".767" stop-color="#180024"/></radialGradient><path fill-rule="evenodd" clip-rule="evenodd" fill="url(#a)" d="M10 10h220v214H10z"/><path fill-rule="evenodd" clip-rule="evenodd" fill="#E788FF" d="M0 0v234h240V0H0zm10 10h220v214H10V10zM62.25 54.777c0-.66.165-1.155.99-1.155 6.435-.33 15.84-.495 25.74-.495 27.72 0 39.765 15.18 39.765 34.65 0 25.41-18.385 36.3-40.99 36.3-3.795 0-5.115-.164-7.755-.164v38.43c0 .826-.33 1.156-1.155 1.156h-15.44c-.825 0-1.155-.33-1.155-1.157V54.777zM80 107.907c2.31.165 4.125.165 8.085.165 11.715 0 22.675-4.125 22.675-19.965 0-12.705-7.825-19.14-21.19-19.14-3.96 0-7.755.166-9.57.33v38.61zm64-9.075c0-1.154 0-4.125-.495-9.734 0-.827.116-.99.776-1.32 6.105-2.475 20.394-6.93 36.564-6.93.826 0 1.156.164 1.156.99v14.52c0 .824-.266.99-1.09.99-6.27-.33-15.445.494-18.91 1.98v63.015c0 .826-.33 1.157-1.156 1.157h-15.69c-.824 0-1.154-.33-1.154-1.157v-63.51z"/></svg>