<?xml version="1.0" encoding="utf-8"?>
<!-- Generator: Adobe Illustrator 19.2.1, SVG Export Plug-In . SVG Version: 6.00 Build 0)  -->
<svg version="1.1" id="Layer_2" xmlns="http://www.w3.org/2000/svg" xmlns:xlink="http://www.w3.org/1999/xlink" x="0px" y="0px"
	 viewBox="0 0 240 234" style="enable-background:new 0 0 240 234;" xml:space="preserve">
<style type="text/css">
	.st0{fill-rule:evenodd;clip-rule:evenodd;fill:#FFDA00;}
	.st1{fill-rule:evenodd;clip-rule:evenodd;fill:#262000;}
	.st2{fill:#FFDA00;}
</style>
<path class="st0" d="M0,0v234h240V0H0z M10,10h220v214H10V10z"/>
<rect x="10" y="10" class="st1" width="220" height="214"/>
<path class="st2" d="M52.9,154.8c-0.7-0.4-1-1.1-1-2.1v-15.5c0-0.5,0.6-1,1.3-0.5c7.2,5,15.4,7.2,23.5,7.2c11.8,0,16.6-6.1,16.6-13
	c0-6.1-3.1-11.1-14.3-17.7l-5.8-3.1c-16.6-9.3-21.4-18.8-21.4-30.9c0-16.4,11.4-29.6,33-29.6c9.5,0,17.2,1.5,21.2,3.7
	c0.8,0.3,1,0.8,1,1.8v14.5c0,0.6-0.6,1.1-1.3,0.6c-5-3.2-13-4.8-20.6-4.8c-12.4,0-16.4,7.1-16.4,12.7c0,6.1,3.1,10.6,14.2,16.8
	l5.1,2.7c18.4,10.1,23,20,23,32c0,17.9-13,30.3-34.3,30.3C67.2,160,58.9,158.2,52.9,154.8z M188.3,116.5c0,29.1-20.4,43.5-41.1,43.5
	c-1.3,0-2.7-0.2-4.2-0.3v22.1c0,0.7-0.3,1-1.1,1.1l-14.7,1.4c-1,0-1.1-0.2-1.1-1V92.8c0-1.8-0.2-6.4-0.5-8.7c0-0.2-0.5-0.6-0.1-0.8
	c6.4-2.1,16.3-5.5,27.7-5.5C175.9,77.9,188.3,94.5,188.3,116.5z M142.9,94.5v49.8c1.4,0.5,3.5,0.6,5.2,0.6
	c10.8,0,22.2-7.7,22.2-27.2c0-15.9-7.1-24.5-19.2-24.5C147.9,93.2,145.5,93.7,142.9,94.5z"/>
</svg>
