<svg xmlns="http://www.w3.org/2000/svg" version="1.1" x="0" y="0" width="658" height="647" viewBox="-23 70 658 647" enable-background="new -23 70 658 647" xml:space="preserve">
    <rect class="opacity-zero-inactive" id="Rectangle-path" fill="#152600" x="1" y="98.7" width="610" height="594"/>
	<path fill="#FF4486" d="M0 97.7v596.7h612V97.7H0zm25.5 25.4h561v545.7h-561V123.1zM155.5 502.6c-1.8-1.3-2.5-3.1-2.5-5.4v-40.3c0-1.3 1.8-2.5 3.3-1.3 18.9 13 41.1 18.9 62.2 18.9 30.6 0 43.4-16.1 43.4-34.2 0-16.1-7.9-29.1-37.5-46.4l-15-7.9c-43.4-24.5-55.9-49.2-55.9-80.8 0-42.8 29.8-77.5 86.2-77.5 24.7 0 43.4 3.8 53.8 9.7 2 .8 2.5 2 2.5 4.6v37.7c0 1.8-1.8 3.1-3.3 1.8-13-8.4-32.4-12.8-52-12.8-32.4 0-42.8 18.6-42.8 33.1 0 16.1 7.9 27.8 37 43.9l13.5 7.1c47.9 26.5 60.2 52.3 60.2 83.6 0 46.7-34.2 79-89.5 79-25.5.7-48-3.9-63.6-12.8zm292 3.8c0 2-.8 3.8-3.1 4.6-8.9 3.3-18.6 5.1-31.1 5.1-31.9 0-50-16.8-50-56.4V345h-24.2c-2 0-2.5-.8-2.5-3.1v-33.7c0-2 .5-3.3 3.1-3.3h24.2c.5-14.8 2-40.3 3.8-48.4 0-3.1 1.3-3.8 3.1-4.1l38-5.1c1.8-.5 3.1 0 3.1 2-.8 12.2-1.3 32.9-1.8 55.6h37c2 0 3.1.8 3.1 3.1v34.4c0 2-1.3 2.5-3.1 2.5h-37.2v106.8c0 17.3 5.9 25 21.4 25 5.1 0 9.2-.5 14.3-1.8 1.3-.5 2.5.5 2.5 2.5v28.8l-.6.2z"/>
</svg>