<?xml version="1.0" encoding="UTF-8"?>
<svg width="100px" height="100px" viewBox="0 0 100 100" version="1.1" xmlns="http://www.w3.org/2000/svg" xmlns:xlink="http://www.w3.org/1999/xlink">
    <!-- Generator: Sketch 42 (36781) - http://www.bohemiancoding.com/sketch -->
    <title>target</title>
    <desc>Created with Sketch.</desc>
    <defs>
        <radialGradient cx="39.8679727%" cy="33.3128516%" fx="39.8679727%" fy="33.3128516%" r="60.1304167%" id="radialGradient-1">
            <stop stop-color="#324447" offset="0%"></stop>
            <stop stop-color="#051A1E" offset="76.69%"></stop>
        </radialGradient>
    </defs>
    <g id="Symbols" stroke="none" stroke-width="1" fill="none" fill-rule="evenodd">
        <g id="target">
            <g id="target-icon-hover">
                <g id="Brush">
                    <rect id="Rectangle-path" fill="url(#radialGradient-1)" x="0" y="0" width="99.9985002" height="99.5961556"></rect>
                    <g id="Group" transform="translate(6.249906, 6.224760)">
                        <path d="M0.729155731,43.1583341 C0.729155731,66.8124211 19.9997,86.0054302 43.7493438,86.0054302 C67.4989876,86.0054302 86.769532,66.8124211 86.769532,43.1583341 C86.769532,19.5042471 67.4989876,0.311237986 43.7493438,0.311237986 C19.9997,0.311237986 0.729155731,19.4005011 0.729155731,43.1583341 Z M5.20825522,43.1583341 C5.20825522,21.890405 22.4996625,4.66856979 43.7493438,4.66856979 C64.9990251,4.66856979 82.2904325,21.890405 82.2904325,43.1583341 C82.2904325,64.4262632 65.1031902,81.5443524 43.7493438,81.5443524 C22.3954974,81.5443524 5.20825522,64.3225172 5.20825522,43.1583341 Z" id="Shape" fill="#17D8FF"></path>
                        <path d="M25.4162855,34.8586545 C27.4995876,34.8586545 29.4787245,35.6886224 30.937036,37.1410664 C32.3953475,38.5935103 33.2286683,40.5646842 33.2286683,42.6396041 C33.2286683,44.714524 32.3953475,46.6856979 30.937036,48.1381419 C29.4787245,49.5905858 27.4995876,50.4205538 25.4162855,50.4205538 C23.3329834,50.4205538 21.3538464,49.5905858 19.8955349,48.1381419 C18.4372235,46.6856979 17.6039026,44.714524 17.6039026,42.6396041 C17.6039026,40.5646842 18.4372235,38.5935103 19.8955349,37.1410664 C21.3538464,35.6886224 23.3329834,34.8586545 25.4162855,34.8586545 Z M43.7493438,16.5993593 C45.8326459,16.5993593 47.8117829,17.4293272 49.2700944,18.8817712 C52.2908824,21.890405 52.2908824,26.8702128 49.2700944,29.9825927 C47.8117829,31.4350366 45.8326459,32.2650046 43.7493438,32.2650046 C41.6660418,32.2650046 39.6869048,31.4350366 38.2285933,29.9825927 C35.2078053,26.9739588 35.2078053,21.994151 38.2285933,18.8817712 C39.6869048,17.4293272 41.5618766,16.5993593 43.7493438,16.5993593 Z M43.0201881,52.4954737 C45.1034902,52.4954737 47.0826272,53.3254416 48.5409386,54.7778856 C49.9992501,56.2303295 50.8325709,58.2015034 50.8325709,60.2764233 C50.8325709,62.3513432 49.9992501,64.3225172 48.5409386,65.7749611 C47.0826272,67.227405 45.1034902,68.057373 43.0201881,68.057373 C40.936886,68.057373 38.957749,67.227405 37.4994376,65.7749611 C34.4786496,62.7663272 34.4786496,57.7865195 37.4994376,54.6741396 C38.957749,53.2216957 40.8327209,52.4954737 43.0201881,52.4954737 Z M61.2490814,35.5848764 C62.915723,35.5848764 64.5823647,36.2073524 65.7281809,37.4523043 C66.9781621,38.6972563 67.6031527,40.2534462 67.6031527,41.9133822 C67.6031527,43.5733181 66.9781621,45.233254 65.7281809,46.37446 C64.4781996,47.6194119 62.915723,48.2418879 61.2490814,48.2418879 C59.5824397,48.2418879 57.915798,47.6194119 56.7699819,46.37446 C55.6241657,45.129508 54.89501,43.5733181 54.89501,41.9133822 C54.89501,40.2534462 55.5200006,38.5935103 56.7699819,37.4523043 C58.0199631,36.3110984 59.5824397,35.5848764 61.2490814,35.5848764 Z M25.4162855,33.4062105 C23.0204881,33.4062105 20.6246907,34.3399245 18.8538839,36.1036064 C15.2081052,39.7347162 15.2081052,45.648238 18.8538839,49.2793478 C20.6246907,51.1467757 23.0204881,51.9767437 25.4162855,51.9767437 C27.8120829,51.9767437 30.2078803,51.0430297 31.978687,49.2793478 C35.4161355,45.85573 35.6244657,40.3571922 32.4995126,36.6223364 L37.8119329,31.4350366 C39.3744095,32.7837346 41.2493813,33.5099565 43.1243532,33.6137025 L43.1243532,50.8355378 L43.1243532,50.8355378 C40.7285558,50.8355378 38.2285933,51.7692517 36.4577865,53.5329336 C32.8120079,57.1640435 32.8120079,63.0775652 36.4577865,66.7086751 C38.2285933,68.576103 40.6243907,69.4060709 43.0201881,69.4060709 C45.4159855,69.4060709 47.8117829,68.472357 49.5825897,66.7086751 C52.8117079,63.4925492 53.1242032,58.5127414 50.7284058,54.8816316 L56.0408262,49.4868398 C57.6033027,50.6280458 59.4782746,51.1467757 61.3532465,51.1467757 C63.7490439,51.1467757 66.1448413,50.2130618 67.9156481,48.4493799 C71.5614267,44.81827 71.5614267,38.9047483 67.9156481,35.2736384 C66.1448413,33.4062105 63.7490439,32.5762426 61.3532465,32.5762426 C58.9574491,32.5762426 56.5616517,33.5099565 54.7908449,35.2736384 C51.1450663,38.9047483 51.1450663,44.81827 54.7908449,48.4493799 C54.89501,48.5531259 54.89501,48.5531259 54.9991751,48.6568719 L49.895085,53.7404256 L49.5825897,53.5329336 C48.1242782,52.0804897 46.3534715,51.2505217 44.5826647,50.9392838 L44.5826647,33.7174485 C46.6659668,33.5099565 48.7492689,32.6799886 50.3117454,31.0200526 C53.9575241,27.3889428 54.0616892,21.4754211 50.5200756,17.8443112 C48.7492689,15.9768833 46.3534715,15.1469153 43.957674,15.1469153 C41.5618766,15.1469153 39.1660792,16.0806293 37.3952725,17.8443112 C33.957824,21.2679291 33.7494938,26.7664668 36.874447,30.5013227 L31.6661917,35.6886224 C29.6870547,34.1324325 27.6037527,33.4062105 25.4162855,33.4062105 Z M65.4156856,41.8096362 C65.4156856,43.9883021 63.9573741,45.959476 61.4574116,45.959476 C58.7491189,45.959476 57.2908074,44.1957941 57.2908074,42.0171281 C57.2908074,39.8384622 59.1657793,37.7635423 61.3532465,37.7635423 C63.4365486,37.7635423 65.4156856,39.6309703 65.4156856,41.8096362 Z" id="Shape" fill="#CBF0FE"></path>
                    </g>
                </g>
            </g>
        </g>
    </g>
</svg>